HIERARCHY
ROOT Hips
{
	OFFSET 0.000000 0.000000 0.000000
	CHANNELS 6 Xposition Yposition Zposition Zrotation Yrotation Xrotation 
	JOINT LeftUpLeg_virtual
	{
		OFFSET 0.000000 0.000000 0.000000
		CHANNELS 3 Zrotation Yrotation Xrotation
		JOINT LeftUpLeg
		{
			OFFSET 10.205400 -3.823500 0.155100
			CHANNELS 3 Zrotation Yrotation Xrotation
			JOINT LeftLeg
			{
				OFFSET 0.708757 -12.982077 0.567790
				CHANNELS 3 Zrotation Yrotation Xrotation
				JOINT LeftFoot
				{
					OFFSET -0.708756 -10.717838 -2.184338
					CHANNELS 3 Zrotation Yrotation Xrotation
					JOINT LeftToeBase
					{
						OFFSET 0.108149 -7.191104 7.560241
						CHANNELS 3 Zrotation Yrotation Xrotation
						End Site
						{
							OFFSET 0.000000 0.000000 0.000000
						}
					}
				}
			}
		}
	}
	JOINT RightUpLeg_virtual
	{
		OFFSET 0.000000 0.000000 0.000000
		CHANNELS 3 Zrotation Yrotation Xrotation
		JOINT RightUpLeg
		{
			OFFSET -10.205400 -3.823500 0.005500
			CHANNELS 3 Zrotation Yrotation Xrotation
			JOINT RightLeg
			{
				OFFSET -0.708756 -12.982134 0.610632
				CHANNELS 3 Zrotation Yrotation Xrotation
				JOINT RightFoot
				{
					OFFSET 0.708754 -10.717769 -1.945823
					CHANNELS 3 Zrotation Yrotation Xrotation
					JOINT RightToeBase
					{
						OFFSET -0.108140 -7.191069 7.372968
						CHANNELS 3 Zrotation Yrotation Xrotation
						End Site
						{
							OFFSET 0.000000 0.000000 0.000000
						}
					}
				}
			}
		}
	}
	JOINT Spine_virtual
	{
		OFFSET 0.000000 0.000000 0.000000
		CHANNELS 3 Zrotation Yrotation Xrotation
		JOINT Spine
		{
			OFFSET 0.000000 6.876099 0.125700
			CHANNELS 3 Zrotation Yrotation Xrotation
			JOINT Spine1
			{
				OFFSET 0.000000 8.022060 0.146608
				CHANNELS 3 Zrotation Yrotation Xrotation
				JOINT Spine2
				{
					OFFSET 0.000000 9.168068 0.167552
					CHANNELS 3 Zrotation Yrotation Xrotation
					JOINT Neck_virtual
					{
						OFFSET 0.000000 0.000000 0.000000
						CHANNELS 3 Zrotation Yrotation Xrotation
						JOINT Neck
						{
							OFFSET 0.000000 10.314075 0.188496
							CHANNELS 3 Zrotation Yrotation Xrotation
							JOINT Head
							{
								OFFSET 0.000000 7.643700 -2.377400
								CHANNELS 3 Zrotation Yrotation Xrotation
								End Site
								{
									OFFSET 0.000000 0.000000 0.000000
								}
							}
						}
					}
					JOINT LeftShoulder_virtual
					{
						OFFSET 0.000000 0.000000 0.000000
						CHANNELS 3 Zrotation Yrotation Xrotation
						JOINT LeftShoulder
						{
							OFFSET 4.392200 8.824978 0.174984
							CHANNELS 3 Zrotation Yrotation Xrotation
							JOINT LeftArm
							{
								OFFSET 8.771219 -2.981674 -0.026999
								CHANNELS 3 Zrotation Yrotation Xrotation
								JOINT LeftForeArm
								{
									OFFSET 8.512804 0.000000 -0.000000
									CHANNELS 3 Zrotation Yrotation Xrotation
									JOINT LeftHand
									{
										OFFSET 18.484802 0.000000 -0.000000
										CHANNELS 3 Zrotation Yrotation Xrotation
										End Site
										{
											OFFSET 0.000000 0.000000 0.000000
										}
									}
								}
							}
						}
					}
					JOINT RightShoulder_virtual
					{
						OFFSET 0.000000 0.000000 0.000000
						CHANNELS 3 Zrotation Yrotation Xrotation
						JOINT RightShoulder
						{
							OFFSET -4.392200 8.824993 0.141379
							CHANNELS 3 Zrotation Yrotation Xrotation
							JOINT RightArm
							{
								OFFSET -8.771282 -2.981682 -0.094208
								CHANNELS 3 Zrotation Yrotation Xrotation
								JOINT RightForeArm
								{
									OFFSET -8.494598 0.000000 0.000000
									CHANNELS 3 Zrotation Yrotation Xrotation
									JOINT RightHand
									{
										OFFSET -18.483803 0.000000 0.000001
										CHANNELS 3 Zrotation Yrotation Xrotation
										End Site
										{
											OFFSET 0.000000 0.000000 0.000000
										}
									}
								}
							}
						}
					}
				}
			}
		}
	}
}
MOTION
Frames: 10
Frame Time: 0.033333
-5.273254 36.327003 -34.292980 179.859098 -0.502212 -179.181147 -3.605098 -2.366817 11.309691 -5.794323 5.605771 -17.072334 17.708017 3.639653 24.523729 -4.083992 -2.114799 3.735594 0.000000 0.000000 0.000000 1.674795 -1.181375 10.313382 -0.623579 -1.215707 -11.490354 -8.167784 0.188612 16.494039 10.740223 0.843850 7.422577 0.000000 0.000000 0.000000 -0.078601 0.901439 -2.285326 -3.595588 2.956283 -8.453653 -0.246898 -3.681950 4.663024 0.009023 -0.017410 0.126971 -0.249513 -2.296671 6.359210 -4.181470 3.820834 20.611190 0.000000 0.000000 0.000000 1.566223 -1.323995 2.945255 -4.423390 0.881124 -5.873261 -0.743015 6.635997 -42.331412 -1.973226 -40.452994 -2.831917 0.000000 0.000000 0.000000 -2.485155 -0.546186 2.308710 21.321351 -2.881723 -13.917799 10.514634 -15.213553 -52.936575 -0.136568 31.183802 5.879551 0.000000 0.000000 0.000000 
-5.260649 36.330189 -34.268326 179.805167 -0.303132 -178.842588 -3.633740 -2.061511 11.604950 -5.692917 5.649330 -16.574543 17.804162 3.069282 24.599082 -4.220993 -2.435078 4.065169 0.000000 0.000000 0.000000 1.893395 -1.652520 10.524209 -0.798203 -1.401784 -11.130426 -8.192753 0.384497 16.666493 10.613848 0.794745 7.724748 0.000000 0.000000 0.000000 -0.100750 0.898489 -2.527932 -3.687564 2.945579 -8.523201 -0.277374 -3.620203 4.615832 -0.001027 0.009437 0.150007 -0.239032 -2.075111 6.318530 -4.226695 3.786923 20.568865 0.000000 0.000000 0.000000 1.584210 -1.366485 2.951848 -4.376713 0.750771 -5.901366 -0.760337 6.671602 -42.375484 -1.875638 -40.584865 -2.954169 0.000000 0.000000 0.000000 -2.474189 -0.580021 2.260971 21.351474 -2.932483 -13.913627 10.542628 -15.206235 -53.065570 -0.139279 31.336720 5.875825 0.000000 0.000000 0.000000 
-5.240965 36.339661 -34.250416 179.846736 -0.240001 -178.854364 -3.529995 -2.110589 11.641541 -5.712353 5.697576 -16.454079 17.628954 3.124246 24.274656 -4.029494 -2.445446 4.176546 0.000000 0.000000 0.000000 1.995250 -1.732536 10.497756 -0.806478 -1.402813 -11.179997 -8.234945 0.565676 16.624636 10.662181 0.692197 7.742908 0.000000 0.000000 0.000000 -0.019203 0.872124 -2.509971 -3.768802 2.864963 -8.440767 -0.266844 -3.443481 4.630669 0.026156 -0.007367 0.118023 -0.300374 -2.168802 6.319283 -4.190835 3.671944 20.690043 0.000000 0.000000 0.000000 1.540387 -1.374599 3.016800 -4.321167 0.618849 -5.924995 -0.942141 6.739591 -42.426967 -1.858836 -40.854555 -2.967498 0.000000 0.000000 0.000000 -2.542326 -0.633438 2.350930 21.448208 -3.022645 -13.921521 10.619992 -14.918335 -53.310415 -0.216851 31.261694 5.707975 0.000000 0.000000 0.000000 
-5.215014 36.345024 -34.214321 179.789430 -0.295951 -178.838326 -3.488769 -2.155310 11.728209 -5.708200 5.724718 -16.414329 17.435383 3.212073 23.885214 -3.824202 -2.501084 4.261803 0.000000 0.000000 0.000000 1.999214 -1.768371 10.530068 -0.769652 -1.417054 -11.346968 -8.227808 0.676500 16.620827 10.764506 0.473373 7.780721 0.000000 0.000000 0.000000 -0.000517 0.914180 -2.490792 -3.924695 2.811946 -8.362480 -0.297198 -3.509079 4.660062 0.037573 0.041380 0.146757 -0.291157 -2.201262 6.395724 -4.031937 3.564748 20.875507 0.000000 0.000000 0.000000 1.547810 -1.348563 3.076069 -4.290440 0.559555 -5.898089 -1.295544 6.777416 -42.540768 -1.844066 -41.198537 -3.015673 0.000000 0.000000 0.000000 -2.566820 -0.572320 2.200430 21.439918 -3.207316 -13.811373 10.857079 -14.807451 -53.583111 -0.301893 31.141018 5.470243 0.000000 0.000000 0.000000 
-5.181461 36.345943 -34.145943 179.817297 -0.315688 -178.846618 -3.373573 -2.195886 11.830291 -5.686500 5.712272 -16.473477 17.068511 3.101750 23.545744 -3.490435 -2.501271 4.254078 0.000000 0.000000 0.000000 2.063215 -1.786767 10.624833 -0.706232 -1.411847 -11.611555 -8.286033 0.518953 16.707266 10.904904 0.356016 7.859921 0.000000 0.000000 0.000000 0.114087 0.914627 -2.426756 -4.051252 2.671578 -8.231887 -0.313729 -3.476840 4.788556 0.029232 0.027636 0.144508 -0.333502 -2.115704 6.498952 -3.872990 3.409263 21.220662 0.000000 0.000000 0.000000 1.535141 -1.275391 3.142318 -4.216024 0.533255 -5.674338 -1.981687 6.936721 -42.733171 -1.657684 -41.517756 -3.232585 0.000000 0.000000 0.000000 -2.584815 -0.536925 2.334570 21.502448 -3.321677 -13.822444 11.127744 -14.507972 -53.728976 -0.308430 30.746056 5.252663 0.000000 0.000000 0.000000 
-5.137441 36.337700 -34.030369 179.841968 -0.343160 -178.856030 -3.243634 -2.168593 11.904531 -5.600324 5.606250 -16.638476 16.646592 3.127021 23.365252 -3.130023 -2.556255 4.224309 0.000000 0.000000 0.000000 2.046243 -1.701107 10.690815 -0.548582 -1.469251 -11.968537 -8.310991 0.357242 16.904336 11.031435 0.219718 7.895584 0.000000 0.000000 0.000000 0.220715 0.932104 -2.290526 -4.188269 2.529127 -8.022314 -0.319407 -3.438641 4.946428 0.020564 0.001920 0.138791 -0.348571 -1.973888 6.624162 -3.637047 3.159864 21.679541 0.000000 0.000000 0.000000 1.510985 -1.150659 3.203902 -4.127037 0.530162 -5.869922 -2.976636 7.022251 -42.845138 -1.624548 -42.079156 -3.310432 0.000000 0.000000 0.000000 -2.580759 -0.441521 2.487121 21.501313 -3.412666 -13.644435 11.637227 -14.328991 -53.829646 -0.465108 30.306717 4.842861 0.000000 0.000000 0.000000 
-5.088227 36.326405 -33.863049 179.762656 -0.363229 -178.882149 -3.192011 -2.111344 11.920511 -5.413287 5.416292 -16.892747 16.227090 3.180517 23.337454 -2.738588 -2.606644 4.165253 0.000000 0.000000 0.000000 1.905203 -1.581545 10.703923 -0.348234 -1.591728 -12.393589 -8.275611 0.293454 17.194182 11.013432 0.061183 7.937524 0.000000 0.000000 0.000000 0.234694 1.017864 -2.084073 -4.320059 2.397801 -7.704354 -0.340055 -3.414520 5.140955 -0.009309 -0.028665 0.160948 -0.279737 -2.182234 6.772615 -3.317004 2.920248 22.178650 0.000000 0.000000 0.000000 1.566200 -1.147141 3.359664 -4.046030 0.625650 -5.858960 -4.347809 7.179547 -43.128147 -1.428907 -42.587882 -3.559473 0.000000 0.000000 0.000000 -2.501189 -0.367601 2.641970 21.510603 -3.539407 -13.328773 12.151305 -14.034705 -54.026731 -0.621124 29.886705 4.374003 0.000000 0.000000 0.000000 
-5.044341 36.316826 -33.631886 179.808650 -0.278373 -178.898924 -3.050492 -2.101084 11.845799 -5.185709 5.155146 -17.193603 15.717732 3.223634 23.428129 -2.274740 -2.612514 4.041561 0.000000 0.000000 0.000000 1.906342 -1.485898 10.622262 -0.214869 -1.722627 -12.881021 -8.211667 0.206256 17.510510 11.091218 -0.070940 8.026975 0.000000 0.000000 0.000000 0.184952 1.020963 -1.826037 -4.328880 2.305645 -7.249489 -0.266342 -3.304942 5.384729 0.038476 0.007397 -0.009000 -0.308605 -1.896507 7.041833 -2.933214 2.621960 22.539595 0.000000 0.000000 0.000000 1.446961 -1.049518 3.494739 -3.994687 0.499896 -5.640126 -5.916214 7.346909 -43.645459 -1.128273 -43.204748 -3.960241 0.000000 0.000000 0.000000 -2.601602 -0.313962 2.835220 21.474017 -3.632575 -13.090462 13.036660 -13.561250 -54.417637 -0.773350 29.792476 3.878611 0.000000 0.000000 0.000000 
-5.003518 36.314262 -33.334663 179.808978 -0.155899 -178.934291 -3.003495 -2.064079 11.699249 -4.949348 4.906663 -17.550057 15.201940 3.291156 23.540763 -1.816026 -2.587321 4.013490 0.000000 0.000000 0.000000 1.853621 -1.354350 10.457569 -0.132528 -1.942090 -13.423601 -8.099299 0.251350 17.844936 11.145891 -0.195047 8.075707 0.000000 0.000000 0.000000 0.225585 1.039624 -1.605531 -4.478377 2.200885 -6.729147 -0.330015 -3.233703 5.711764 0.086013 0.013658 0.088129 -0.260911 -1.842055 7.155240 -2.644325 2.292324 22.990905 0.000000 0.000000 0.000000 1.491683 -0.980947 3.722158 -3.879274 0.542244 -5.592435 -7.705029 7.463962 -44.233439 -0.776930 -43.679497 -4.403710 0.000000 0.000000 0.000000 -2.544962 -0.207567 2.993542 21.436716 -3.645856 -12.725061 14.018814 -12.848526 -54.764593 -0.948578 29.903955 3.345176 0.000000 0.000000 0.000000 
-4.967170 36.321064 -32.972321 179.799416 -0.041373 -179.028629 -2.980460 -2.027391 11.528620 -4.694089 4.682390 -17.961082 14.686457 3.349598 23.579046 -1.398889 -2.527167 4.060749 0.000000 0.000000 0.000000 1.842892 -1.223638 10.249631 -0.091441 -2.247480 -14.038834 -7.928268 0.355171 18.203151 11.210343 -0.277016 8.087760 0.000000 0.000000 0.000000 0.126984 1.086781 -1.226763 -4.545688 2.126571 -6.174154 -0.282352 -3.144567 5.943534 0.017648 0.013639 0.129872 -0.216586 -1.720391 7.320498 -2.334819 2.050203 23.521860 0.000000 0.000000 0.000000 1.503053 -0.912327 3.943175 -3.703764 0.475226 -5.713750 -9.640865 7.199626 -44.760736 -0.546694 -43.998545 -4.704389 0.000000 0.000000 0.000000 -2.492912 -0.138971 3.146061 21.397185 -3.581338 -12.296502 15.175198 -11.962586 -55.431882 -1.101750 30.049007 2.840567 0.000000 0.000000 0.000000 
